<svg width="210" height="256" viewBox="0 0 210 256" fill="none" xmlns="http://www.w3.org/2000/svg" xmlns:xlink="http://www.w3.org/1999/xlink">
<path d="M164.354,0.059L178.897,27.447L210,31.226L187.177,51.794L191.742,82.222L164.354,65.104L136.967,82.222L141.531,51.794L118.708,31.226L150.66,27.447L164.354,0.059Z" fill="#69623C"/>
<path d="M161.77,102.754L144.078,98.207C140.906,110.424 134.185,121.427 124.763,129.826C115.341,138.225 103.642,143.643 91.142,145.395C78.642,147.148 65.904,145.156 54.535,139.672C43.167,134.188 33.679,125.458 27.27,114.584C20.861,103.71 17.819,91.181 18.528,78.579C19.237,65.977 23.665,53.868 31.253,43.781C38.84,33.695 49.247,26.083 61.159,21.908C73.07,17.734 85.952,17.183 98.176,20.326L102.732,2.643C84.912,-1.992 66.05,-0.5 49.18,6.879C32.31,14.259 18.412,27.097 9.72,43.329C1.028,59.562 -1.953,78.246 1.257,96.377C4.466,114.509 13.68,131.034 27.416,143.296L27.416,255.676L82.191,219.16L136.966,255.676L136.966,143.461C149.092,132.655 157.727,118.484 161.77,102.754ZM118.708,221.56L82.191,197.213L45.674,221.56L45.674,155.712C57.003,161.406 69.505,164.377 82.185,164.386C94.864,164.396 107.371,161.444 118.708,155.767L118.708,221.56Z" fill="#69623C"/>
</svg>
