<svg width="282" height="246" viewBox="0 0 282 246" fill="none" xmlns="http://www.w3.org/2000/svg" xmlns:xlink="http://www.w3.org/1999/xlink">
<path d="M149.812,96.643C157.25,96.643 164.617,96.713 172.161,99.419C179.44,102.02 187.495,107.344 195.355,119.099C195.998,120.059 196.823,120.883 197.785,121.525C198.747,122.167 199.826,122.614 200.962,122.84C202.096,123.066 203.264,123.067 204.4,122.842C205.536,122.618 206.616,122.173 207.578,121.533C208.542,120.892 209.368,120.069 210.012,119.11C210.656,118.151 211.104,117.075 211.33,115.944C211.558,114.812 211.558,113.647 211.334,112.515C211.108,111.384 210.662,110.307 210.02,109.347C200.238,94.728 189.222,86.856 178.118,82.884C167.526,79.071 157.391,79.071 150.165,79.071L149.812,79.071C147.475,79.071 145.234,79.997 143.581,81.645C141.928,83.292 141,85.527 141,87.857C141,90.187 141.928,92.422 143.581,94.07C145.234,95.717 147.475,96.643 149.812,96.643ZM105.75,35.143L105.75,49.024C54.796,64.136 17.625,111.21 17.625,166.929C17.625,169.259 18.553,171.493 20.206,173.141C21.859,174.789 24.1,175.714 26.438,175.714L255.562,175.714C257.9,175.714 260.142,174.789 261.794,173.141C263.446,171.493 264.376,169.259 264.376,166.929C264.382,140.435 255.808,114.647 239.93,93.403C224.052,72.159 201.716,56.594 176.25,49.024L176.25,35.143C176.25,25.822 172.536,16.884 165.926,10.293C159.315,3.703 150.349,0 141,0C131.651,0 122.685,3.703 116.074,10.293C109.464,16.884 105.75,25.822 105.75,35.143ZM141,17.571C145.674,17.571 150.157,19.423 153.463,22.718C156.768,26.013 158.625,30.483 158.625,35.143L158.625,45.159C146.936,43.476 135.064,43.476 123.375,45.159L123.375,35.143C123.375,30.483 125.232,26.013 128.537,22.718C131.843,19.423 136.326,17.571 141,17.571ZM141,61.5C167.524,61.496 193.081,71.429 212.602,89.33C232.126,107.231 244.188,131.792 246.398,158.143L35.603,158.143C37.813,131.792 49.875,107.231 69.397,89.33C88.919,71.429 114.476,61.496 141,61.5ZM26.438,193.286C19.426,193.286 12.701,196.063 7.743,201.006C2.785,205.948 0,212.652 0,219.642C0,226.634 2.785,233.338 7.743,238.28C12.701,243.224 19.426,246 26.438,246L255.562,246C262.574,246 269.298,243.224 274.256,238.28C279.214,233.338 282,226.634 282,219.642C282,212.652 279.214,205.948 274.256,201.006C269.298,196.063 262.574,193.286 255.562,193.286L26.438,193.286ZM17.625,219.642C17.625,217.312 18.553,215.078 20.206,213.43C21.859,211.782 24.1,210.858 26.438,210.858L255.562,210.858C257.9,210.858 260.142,211.782 261.794,213.43C263.446,215.078 264.376,217.312 264.376,219.642C264.376,221.972 263.446,224.208 261.794,225.856C260.142,227.502 257.9,228.428 255.562,228.428L26.438,228.428C24.1,228.428 21.859,227.502 20.206,225.856C18.553,224.208 17.625,221.972 17.625,219.642Z" fill="#69623C"/>
</svg>
