<svg width="344" height="246" viewBox="0 0 344 246" fill="none" xmlns="http://www.w3.org/2000/svg" xmlns:xlink="http://www.w3.org/1999/xlink">
<path d="M220.374,74.87C227.816,74.87 235.09,72.674 241.278,68.561C247.466,64.447 252.288,58.601 255.136,51.76C257.984,44.92 258.73,37.393 257.278,30.132C255.826,22.87 252.242,16.2 246.98,10.964C241.718,5.729 235.014,2.164 227.716,0.719C220.416,-0.725 212.852,0.016 205.976,2.85C199.101,5.683 193.224,10.481 189.09,16.637C184.956,22.793 182.749,30.031 182.749,37.435C182.749,47.363 186.713,56.885 193.769,63.905C200.826,70.926 210.396,74.87 220.374,74.87ZM220.374,21.391C223.564,21.391 226.682,22.332 229.334,24.095C231.986,25.858 234.052,28.364 235.272,31.295C236.492,34.227 236.812,37.453 236.19,40.565C235.568,43.677 234.032,46.536 231.776,48.779C229.522,51.023 226.648,52.551 223.52,53.17C220.392,53.789 217.15,53.471 214.204,52.257C211.258,51.043 208.738,48.986 206.966,46.348C205.196,43.71 204.25,40.608 204.25,37.435C204.25,33.18 205.948,29.099 208.972,26.09C211.996,23.082 216.098,21.391 220.374,21.391ZM342.496,229.85L269.18,106.743C267.29,103.536 264.586,100.879 261.338,99.04C258.09,97.2 254.414,96.242 250.676,96.261C246.942,96.241 243.266,97.2 240.022,99.039C236.776,100.879 234.074,103.536 232.186,106.743L197.033,165.783L136.778,64.04C134.88,60.83 132.171,58.168 128.921,56.319C125.671,54.47 121.992,53.497 118.248,53.497C114.504,53.497 110.825,54.47 107.574,56.319C104.324,58.168 101.616,60.83 99.717,64.04L1.487,229.876C0.526,231.5 0.013,233.348 0,235.234C-0.012,237.118 0.476,238.974 1.416,240.61C2.356,242.246 3.714,243.608 5.352,244.554C6.991,245.5 8.851,246 10.746,246L333.252,246C335.15,246 337.012,245.5 338.654,244.55C340.294,243.602 341.652,242.238 342.592,240.598C343.53,238.958 344.016,237.098 344,235.21C343.984,233.324 343.464,231.474 342.496,229.85ZM118.248,74.87L149.921,128.348L86.575,128.348L118.248,74.87ZM29.559,224.608L73.903,149.739L162.592,149.739L187.775,192.254L206.936,224.608L29.559,224.608ZM231.89,224.608L209.504,186.8L250.676,117.652L314.438,224.608L231.89,224.608Z" fill="#69623C"/>
</svg>
