<svg width="104" height="104" viewBox="0 0 104 104" fill="none" xmlns="http://www.w3.org/2000/svg" xmlns:xlink="http://www.w3.org/1999/xlink">
<path d="M71.37,104L71.37,63.726L84.89,63.726L86.913,48.032L71.365,48.032L71.365,38.012C71.365,33.467 72.628,30.368 79.149,30.368L87.459,30.368L87.459,16.328C83.434,15.9 79.39,15.691 75.343,15.704C63.362,15.704 55.162,23.02 55.162,36.452L55.162,48.032L41.6,48.032L41.6,63.726L55.156,63.726L55.156,104L5.741,104C2.569,104 0,101.431 0,98.259L0,5.741C0,2.569 2.569,0 5.741,0L98.259,0C101.431,0 104,2.569 104,5.741L104,98.259C104,101.431 101.431,104 98.259,104L71.37,104Z" clip-rule="evenodd" fill-rule="evenodd" fill="#69623C"/>
</svg>
