<svg width="74" height="104" viewBox="0 0 74 104" fill="none" xmlns="http://www.w3.org/2000/svg" xmlns:xlink="http://www.w3.org/1999/xlink">
<path d="M20.105,77.041C23.129,80.874 25.881,84.912 28.341,89.125C30.441,93.087 31.317,95.774 32.852,100.548C33.793,103.186 34.644,103.973 36.473,103.973C38.466,103.973 39.371,102.634 40.069,100.562C41.52,96.054 42.659,92.613 44.455,89.362C47.98,83.085 52.359,77.507 56.663,72.147C57.828,70.629 65.36,61.79 68.751,54.816C68.751,54.816 72.919,47.155 72.919,36.456C72.919,26.447 68.809,19.506 68.809,19.506L56.975,22.659L49.788,41.489L48.011,44.086L47.655,44.556L47.182,45.145L46.352,46.086L45.166,47.266L38.767,52.453L22.767,61.643L20.105,77.041Z" fill="#69623C"/>
<path d="M3.593,53.528C7.497,62.401 15.028,70.201 20.122,77.047L47.183,45.157C47.183,45.157 43.37,50.117 36.455,50.117C28.752,50.117 22.529,43.998 22.529,36.281C22.529,30.99 25.729,27.354 25.729,27.354L7.36,32.251L3.593,53.528Z" fill="#69623C"/>
<path d="M47.484,1.64C56.472,4.522 64.164,10.575 68.817,19.499L47.191,45.139C47.191,45.139 50.39,41.438 50.39,36.179C50.39,28.283 43.707,22.384 36.487,22.384C29.66,22.384 25.739,27.336 25.739,27.336L25.739,11.184L47.484,1.64Z" fill="#69623C"/>
<path d="M8.55,12.969C13.917,6.579 23.363,0 36.385,0C42.702,0 47.462,1.65 47.462,1.65L25.718,27.351L10.313,27.351L8.55,12.969Z" fill="#69623C"/>
<path d="M3.592,53.528C3.592,53.528 0,46.529 0,36.39C0,26.807 3.745,18.43 8.55,12.969L25.731,27.353L3.592,53.528Z" fill="#69623C"/>
</svg>
