<svg width="104" height="104" viewBox="0 0 104 104" fill="none" xmlns="http://www.w3.org/2000/svg" xmlns:xlink="http://www.w3.org/1999/xlink">
<path d="M52,0C37.889,0 36.114,0.065 30.569,0.312C25.025,0.572 21.249,1.443 17.94,2.73C14.468,4.032 11.324,6.08 8.729,8.729C6.08,11.324 4.032,14.468 2.73,17.94C1.443,21.242 0.566,25.025 0.312,30.55C0.065,36.107 0,37.876 0,52.007C0,66.125 0.065,67.893 0.312,73.437C0.572,78.975 1.443,82.751 2.73,86.06C4.063,89.479 5.837,92.378 8.729,95.271C11.615,98.163 14.515,99.944 17.934,101.27C21.249,102.557 25.019,103.434 30.557,103.688C36.108,103.935 37.875,104 52,104C66.125,104 67.886,103.935 73.437,103.688C78.969,103.428 82.758,102.557 86.066,101.27C89.536,99.967 92.678,97.919 95.271,95.271C98.163,92.378 99.938,89.479 101.27,86.06C102.55,82.751 103.428,78.975 103.688,73.437C103.935,67.893 104,66.125 104,52C104,37.875 103.935,36.108 103.688,30.557C103.428,25.025 102.55,21.242 101.27,17.94C99.968,14.468 97.92,11.324 95.271,8.729C92.676,6.08 89.532,4.032 86.06,2.73C82.745,1.443 78.962,0.566 73.43,0.312C67.88,0.065 66.118,0 51.987,0L52,0ZM47.34,9.373L52.007,9.373C65.891,9.373 67.535,9.418 73.014,9.672C78.084,9.899 80.84,10.751 82.674,11.46C85.098,12.402 86.833,13.533 88.654,15.353C90.474,17.173 91.598,18.902 92.541,21.333C93.256,23.16 94.101,25.916 94.328,30.986C94.581,36.465 94.633,38.11 94.633,51.987C94.633,65.865 94.581,67.515 94.328,72.995C94.101,78.065 93.249,80.814 92.541,82.647C91.701,84.902 90.371,86.943 88.647,88.621C86.827,90.441 85.098,91.566 82.667,92.508C80.847,93.223 78.091,94.068 73.014,94.302C67.535,94.549 65.891,94.607 52.007,94.607C38.123,94.607 36.472,94.549 30.992,94.302C25.922,94.068 23.173,93.223 21.34,92.508C19.083,91.671 17.04,90.344 15.36,88.621C13.632,86.941 12.3,84.899 11.459,82.641C10.751,80.814 9.899,78.059 9.672,72.989C9.425,67.509 9.373,65.865 9.373,51.974C9.373,38.083 9.425,36.452 9.672,30.972C9.906,25.903 10.751,23.146 11.466,21.313C12.409,18.889 13.539,17.154 15.36,15.334C17.18,13.513 18.909,12.389 21.34,11.447C23.173,10.731 25.922,9.887 30.992,9.653C35.789,9.432 37.648,9.367 47.34,9.36L47.34,9.373ZM79.761,18.005C78.942,18.005 78.131,18.166 77.374,18.48C76.616,18.794 75.929,19.253 75.349,19.833C74.77,20.412 74.31,21.1 73.996,21.857C73.683,22.614 73.521,23.426 73.521,24.245C73.521,25.064 73.683,25.876 73.996,26.633C74.31,27.39 74.77,28.078 75.349,28.657C75.929,29.237 76.616,29.696 77.374,30.01C78.131,30.324 78.942,30.485 79.761,30.485C81.416,30.485 83.004,29.828 84.174,28.657C85.344,27.487 86.002,25.9 86.002,24.245C86.002,22.59 85.344,21.003 84.174,19.833C83.004,18.662 81.416,18.005 79.761,18.005ZM52.007,25.298C48.464,25.243 44.947,25.893 41.658,27.21C38.37,28.527 35.376,30.485 32.852,32.971C30.328,35.456 28.323,38.419 26.954,41.686C25.586,44.954 24.881,48.461 24.881,52.003C24.881,55.546 25.586,59.053 26.954,62.32C28.323,65.588 30.328,68.55 32.852,71.036C35.376,73.521 38.37,75.479 41.658,76.797C44.947,78.114 48.464,78.764 52.007,78.709C59.017,78.599 65.703,75.737 70.622,70.741C75.541,65.745 78.298,59.015 78.298,52.003C78.298,44.992 75.541,38.262 70.622,33.265C65.703,28.269 59.017,25.407 52.007,25.298ZM52.007,34.665C54.283,34.665 56.537,35.113 58.641,35.984C60.744,36.855 62.655,38.132 64.265,39.742C65.874,41.352 67.151,43.263 68.022,45.366C68.894,47.469 69.342,49.723 69.342,52C69.342,54.277 68.894,56.531 68.022,58.634C67.151,60.737 65.874,62.648 64.265,64.258C62.655,65.868 60.744,67.145 58.641,68.016C56.537,68.887 54.283,69.336 52.007,69.335C47.409,69.335 42.999,67.509 39.748,64.258C36.497,61.007 34.671,56.598 34.671,52C34.671,47.402 36.497,42.993 39.748,39.742C42.999,36.491 47.409,34.665 52.007,34.665Z" fill="#69623C"/>
</svg>
