<svg width="44" height="44" viewBox="0 0 44 44" fill="none" xmlns="http://www.w3.org/2000/svg" xmlns:xlink="http://www.w3.org/1999/xlink">
<path d="M10.049,3.653C9.887,3.444 9.682,3.272 9.448,3.148C9.214,3.025 8.957,2.953 8.693,2.936C8.429,2.92 8.165,2.96 7.917,3.053C7.67,3.147 7.445,3.292 7.258,3.479L4.415,6.326C3.087,7.657 2.597,9.54 3.177,11.193C5.588,18.032 9.505,24.243 14.639,29.365C19.761,34.498 25.971,38.415 32.811,40.826C34.463,41.407 36.347,40.917 37.678,39.589L40.521,36.745C40.708,36.558 40.854,36.334 40.947,36.087C41.041,35.839 41.081,35.575 41.065,35.311C41.048,35.047 40.976,34.789 40.852,34.555C40.729,34.321 40.557,34.117 40.348,33.954L34.004,29.021C33.781,28.848 33.521,28.728 33.245,28.67C32.969,28.612 32.683,28.617 32.409,28.685L26.387,30.19C25.583,30.389 24.741,30.378 23.943,30.157C23.144,29.936 22.417,29.512 21.83,28.927L15.076,22.171C14.491,21.584 14.067,20.857 13.846,20.059C13.624,19.26 13.612,18.418 13.811,17.614L15.318,11.592C15.386,11.318 15.392,11.032 15.333,10.756C15.275,10.48 15.155,10.22 14.983,9.997L10.049,3.653ZM5.182,1.406C5.663,0.925 6.241,0.551 6.878,0.31C7.515,0.07 8.195,-0.033 8.875,0.009C9.554,0.052 10.217,0.238 10.818,0.556C11.42,0.874 11.947,1.317 12.365,1.854L17.298,8.196C18.203,9.359 18.522,10.874 18.164,12.304L16.66,18.326C16.583,18.638 16.588,18.965 16.673,19.275C16.759,19.584 16.923,19.867 17.15,20.095L23.906,26.851C24.134,27.078 24.417,27.243 24.728,27.328C25.038,27.414 25.365,27.418 25.677,27.341L31.697,25.836C32.403,25.661 33.139,25.648 33.85,25.798C34.562,25.948 35.23,26.257 35.805,26.703L42.146,31.636C44.426,33.41 44.635,36.778 42.595,38.816L39.751,41.66C37.716,43.694 34.675,44.588 31.84,43.59C24.582,41.04 17.993,36.885 12.563,31.435C7.114,26.006 2.959,19.418 0.408,12.161C-0.587,9.329 0.307,6.284 2.341,4.249L5.182,1.406Z" fill="#69623C"/>
</svg>
