<svg width="104" height="104" viewBox="0 0 104 104" fill="none" xmlns="http://www.w3.org/2000/svg" xmlns:xlink="http://www.w3.org/1999/xlink">
<path d="M88.844,15.132C84.053,10.317 78.346,6.499 72.056,3.901C65.766,1.303 59.019,-0.023 52.209,0C23.674,0 0.418,23.14 0.418,51.532C0.418,60.632 2.822,69.472 7.317,77.272L0,104L27.437,96.824C35.015,100.932 43.534,103.116 52.209,103.116C80.744,103.116 104,79.976 104,51.584C104,37.804 98.617,24.856 88.844,15.132ZM52.209,94.38C44.474,94.38 36.896,92.3 30.259,88.4L28.691,87.464L12.386,91.728L16.724,75.92L15.678,74.308C11.381,67.48 9.099,59.588 9.093,51.532C9.093,27.924 28.43,8.684 52.157,8.684C63.654,8.684 74.472,13.156 82.573,21.268C86.584,25.241 89.762,29.966 91.924,35.17C94.086,40.374 95.189,45.953 95.168,51.584C95.272,75.192 75.936,94.38 52.209,94.38ZM75.831,62.348C74.525,61.724 68.149,58.604 66.999,58.136C65.797,57.72 64.961,57.512 64.072,58.76C63.184,60.06 60.728,62.972 59.996,63.804C59.264,64.688 58.48,64.792 57.174,64.116C55.867,63.492 51.686,62.088 46.774,57.72C42.907,54.288 40.346,50.076 39.562,48.776C38.83,47.476 39.457,46.8 40.137,46.124C40.712,45.552 41.443,44.616 42.07,43.888C42.697,43.16 42.959,42.588 43.377,41.756C43.795,40.872 43.586,40.144 43.272,39.52C42.959,38.896 40.346,32.552 39.3,29.952C38.255,27.456 37.158,27.768 36.374,27.716L33.865,27.716C32.977,27.716 31.618,28.028 30.416,29.328C29.266,30.628 25.922,33.748 25.922,40.092C25.922,46.436 30.573,52.572 31.2,53.404C31.827,54.288 40.346,67.288 53.307,72.852C56.39,74.204 58.794,74.984 60.675,75.556C63.759,76.544 66.581,76.388 68.828,76.076C71.337,75.712 76.511,72.956 77.556,69.94C78.653,66.924 78.653,64.376 78.287,63.804C77.922,63.232 77.138,62.972 75.831,62.348Z" fill="#69623C"/>
</svg>
